<?xml version="1.0" encoding="utf-8"?>
<!-- Generator: Adobe Illustrator 17.0.2, SVG Export Plug-In . SVG Version: 6.00 Build 0)  -->
<!DOCTYPE svg PUBLIC "-//W3C//DTD SVG 1.1//EN" "http://www.w3.org/Graphics/SVG/1.1/DTD/svg11.dtd">
<svg version="1.1" id="Ebene_1" xmlns="http://www.w3.org/2000/svg" xmlns:xlink="http://www.w3.org/1999/xlink" x="0px" y="0px"
	 width="9px" height="9px" viewBox="0 0 9 9" enable-background="new 0 0 9 9" xml:space="preserve">
<g>
	<defs>
		<rect id="SVGID_1_" y="1" width="35" height="8"/>
	</defs>
	<clipPath id="SVGID_2_">
		<use xlink:href="#SVGID_1_"  overflow="visible"/>
	</clipPath>
	<path clip-path="url(#SVGID_2_)" fill="#7FCFF5" d="M20.8,2.2c1.6,1.6,1.6,4.1,0,5.7c-1.6,1.6-4.3,1.6-6,0c-1.6-1.6-1.6-4.1,0-5.7
		C16.4,0.6,19.1,0.6,20.8,2.2"/>
	<path clip-path="url(#SVGID_2_)" fill="#396C81" d="M7.2,2.2c1.6,1.6,1.6,4.1,0,5.7c-1.6,1.6-4.3,1.6-6,0c-1.6-1.6-1.6-4.1,0-5.7
		C2.9,0.6,5.6,0.6,7.2,2.2"/>
	<path clip-path="url(#SVGID_2_)" fill="#7FCFF5" d="M33.8,2.2c1.6,1.6,1.6,4.1,0,5.7c-1.6,1.6-4.3,1.6-6,0c-1.6-1.6-1.6-4.1,0-5.7
		C29.4,0.6,32.1,0.6,33.8,2.2"/>
</g>
</svg>
